PathFileType	4	(X/Y/Z)	./resultDataOpenSim/trcMotMarkerGrf/sub09/qtm-13-08.trc
DataRate	CameraRate	NumFrames	NumMarkers	Units	OrigDataRate	OrigDataStartFrame	OrigNumFrames
250.000000	250.000000	7	24	m	250.000000	120	479
Frame#	Time	L.Toe.Tip			R.Toe.Tip			L.Ankle.Lat			R.Ankle.Lat			L.Ankle.Med			R.Ankle.Med			L.Heel			R.Heel			L.Knee.Lat			R.Knee.Lat			L.Knee.Med			R.Knee.Med			L.Thigh.Upper			R.Thigh.Upper			L.ASIS			R.ASIS			V.Sacral			L.Acromium			R.Acromium			C7			L.Elbow			R.Elbow			L.Wrist.Lat			R.Wrist.Lat
		X1	Y1	Z1	X2	Y2	Z2	X3	Y3	Z3	X4	Y4	Z4	X5	Y5	Z5	X6	Y6	Z6	X7	Y7	Z7	X8	Y8	Z8	X9	Y9	Z9	X10	Y10	Z10	X11	Y11	Z11	X12	Y12	Z12	X13	Y13	Z13	X14	Y14	Z14	X15	Y15	Z15	X16	Y16	Z16	X17	Y17	Z17	X18	Y18	Z18	X19	Y19	Z19	X20	Y20	Z20	X21	Y21	Z21	X22	Y22	Z22	X23	Y23	Z23	X24	Y24	Z24

120	0.476	-0.2612141	0.075038018	-0.068378758	-0.62979482	0.039560071	0.061860699	-0.41312521	0.092818823	-0.096017771	-0.77523791	0.056100073	0.089932121	-0.3869957	0.11364669	-0.0021572348	-0.76382112	0.092260312	-0.0020782305	-0.47374778	0.046591279	-0.041618251	-0.8443086	0.034681662	0.040089826	-0.41149697	0.51227018	-0.1344564	-0.6346831	0.49270509	0.14848912	-0.40723298	0.50854453	-0.0096786643	-0.65629563	0.48605699	0.020514529	-0.59492639	0.89241007	-0.16661905	-0.62133499	0.90067502	0.20321928	-0.52281449	0.977094	-0.1024781	-0.52128034	0.98119754	0.13619332	-0.68933345	1.0346085	0.012119364	-0.51718099	1.4323803	-0.14880052	-0.53505945	1.43823	0.1791349	-0.59389184	1.4865304	0.015078839	-0.66928241	1.0970998	-0.20873937	-0.6454919	1.0879154	0.27773169	-0.53567202	0.86926035	-0.23601664	-0.45416961	0.888326	0.25239082
121	0.48	-0.24143505	0.077337749	-0.067661007	-0.6296796	0.039509968	0.061962836	-0.39387421	0.091471783	-0.095932965	-0.77523255	0.056101728	0.089940009	-0.36834533	0.11321395	-0.0020486506	-0.76364482	0.092287149	-0.0020759753	-0.45343636	0.04395757	-0.041467476	-0.84430282	0.034768257	0.040041352	-0.40471736	0.5106512	-0.13432929	-0.63268435	0.49242931	0.14900105	-0.39993299	0.50740639	-0.0093701234	-0.65460598	0.48562595	0.020548736	-0.5885879	0.89101864	-0.16656902	-0.61533441	0.89998876	0.20297313	-0.51618279	0.97582812	-0.10242055	-0.51544868	0.98007524	0.13630466	-0.68289475	1.0333456	0.011958582	-0.51095106	1.431316	-0.14890467	-0.52873312	1.4371936	0.17902294	-0.58764978	1.4854736	0.014979657	-0.66331341	1.0963971	-0.2086197	-0.63849622	1.0866111	0.27783205	-0.5311079	0.86806454	-0.23684019	-0.4460591	0.88809012	0.25197161
122	0.484	-0.22194941	0.079832929	-0.067009482	-0.6296105	0.039454117	0.062066181	-0.37489986	0.090384184	-0.09590941	-0.77523586	0.056114938	0.089926011	-0.34987069	0.11301871	-0.0020661131	-0.76345022	0.092315033	-0.0020972627	-0.43333493	0.041693817	-0.041237933	-0.84428767	0.034863227	0.039958107	-0.39773191	0.50872728	-0.13400119	-0.63058285	0.49225272	0.14951136	-0.39319035	0.5059482	-0.009264159	-0.65296289	0.48527607	0.020549697	-0.58222311	0.88952087	-0.16650077	-0.60943152	0.89924673	0.20281493	-0.50953356	0.97446905	-0.10235403	-0.5095569	0.97889412	0.13642539	-0.67644412	1.0319929	0.011831469	-0.50471458	1.4301794	-0.1490166	-0.52241168	1.4360843	0.17891521	-0.58139017	1.4843413	0.014867632	-0.65733459	1.0955894	-0.20880257	-0.63151007	1.0852256	0.27791772	-0.52644286	0.8667782	-0.23767778	-0.4379742	0.88775519	0.25157381
123	0.488	-0.20278049	0.082513784	-0.066435554	-0.6295672	0.039389182	0.062171585	-0.35620351	0.089539771	-0.095943121	-0.77524303	0.056132734	0.089889181	-0.33168001	0.11305652	-0.002123791	-0.76323451	0.092341085	-0.0021470547	-0.41337255	0.039698621	-0.041133884	-0.84426525	0.034971468	0.039840355	-0.3906453	0.50663717	-0.13358823	-0.62813935	0.49219323	0.15010295	-0.3867649	0.50423901	-0.0092429346	-0.65110696	0.48502498	0.020586498	-0.57581678	0.88790743	-0.16642803	-0.6037772	0.89844273	0.20287586	-0.50287846	0.97302941	-0.10227634	-0.50348267	0.9776958	0.13655052	-0.66998915	1.0306016	0.011830845	-0.49846913	1.4289701	-0.14914812	-0.5161005	1.434906	0.17881363	-0.57510928	1.4831398	0.014743631	-0.65148652	1.0946946	-0.20930318	-0.62452133	1.0837602	0.27798684	-0.52163961	0.86543057	-0.23852969	-0.42992041	0.88732503	0.25120408
124	0.492	-0.18394471	0.085369413	-0.065934173	-0.62953071	0.039310401	0.062280903	-0.33777348	0.088926005	-0.096020525	-0.77524842	0.056148298	0.089831227	-0.31385242	0.11330305	-0.0021677486	-0.76300031	0.092363689	-0.0022275568	-0.39354101	0.037912994	-0.041279975	-0.84424163	0.035100184	0.039688259	-0.38369916	0.50458597	-0.13326204	-0.62514894	0.49222363	0.15087368	-0.38036208	0.50237744	-0.009170577	-0.64886254	0.48481641	0.020674518	-0.56935714	0.88617825	-0.16635793	-0.59858628	0.89759039	0.2033231	-0.49622011	0.97151594	-0.10218623	-0.4972104	0.97650068	0.13667311	-0.66353568	1.0292443	0.012065192	-0.49220896	1.4276861	-0.14930107	-0.50980248	1.433658	0.178716	-0.56880754	1.4818672	0.014604155	-0.6457783	1.09373	-0.20987809	-0.61750188	1.0822069	0.27801825	-0.51671875	0.86405475	-0.23938342	-0.42190683	0.88680996	0.25085631
125	0.496	-0.16546834	0.088382995	-0.065483942	-0.62949671	0.039215186	0.062396566	-0.31961414	0.088546699	-0.096132437	-0.77524721	0.056157062	0.08975192	-0.29638205	0.11373244	-0.0022208518	-0.76275688	0.092384476	-0.0023324041	-0.3739684	0.036387379	-0.04159166	-0.84422018	0.035249671	0.039498583	-0.37701646	0.50265873	-0.13308934	-0.62186158	0.49224571	0.15173558	-0.3738725	0.50041923	-0.0090138435	-0.64625118	0.48458617	0.020806523	-0.56283549	0.88434784	-0.16629102	-0.5938985	0.89671331	0.20416365	-0.48955591	0.96993503	-0.1020824	-0.49080345	0.97530017	0.13679615	-0.65708517	1.0279625	0.012580545	-0.48593214	1.4263235	-0.14946595	-0.50350824	1.4323358	0.17862293	-0.56248989	1.4805173	0.014450205	-0.64012788	1.0927028	-0.21033211	-0.61044884	1.08056	0.27800454	-0.51175918	0.86265436	-0.24022316	-0.41393834	0.88621397	0.25051836
126	0.5	-0.14739108	0.091528847	-0.065049558	-0.62947488	0.039110578	0.062517846	-0.30176006	0.088419238	-0.096285737	-0.77523754	0.056160519	0.089638868	-0.27924735	0.11432445	-0.0023193131	-0.76251617	0.09240691	-0.0024505829	-0.3547944	0.035181472	-0.041952796	-0.84419916	0.035410905	0.039263052	-0.37052653	0.50082024	-0.13303352	-0.61889369	0.49208685	0.15245237	-0.36730199	0.49839484	-0.0087813068	-0.64350403	0.48429451	0.020971643	-0.55625232	0.8824383	-0.16622366	-0.58935979	0.89581122	0.20508792	-0.48288871	0.96829789	-0.10196645	-0.48433648	0.97407283	0.1369302	-0.65063779	1.0267178	0.013287142	-0.47964487	1.4248812	-0.14962788	-0.49721755	1.4309403	0.17853736	-0.55616833	1.4790978	0.014295817	-0.63444265	1.0916112	-0.21067061	-0.60340221	1.0788312	0.27797455	-0.50681788	0.86120137	-0.24104437	-0.40601359	0.88553277	0.25018905
